<?xml version="1.0" encoding="UTF-8" standalone="no"?>
<!DOCTYPE svg PUBLIC "-//W3C//DTD SVG 1.1//EN" "http://www.w3.org/Graphics/SVG/1.1/DTD/svg11.dtd">
<svg width="100%" height="100%" viewBox="0 0 1012 160" version="1.1" xmlns="http://www.w3.org/2000/svg" xmlns:xlink="http://www.w3.org/1999/xlink" xml:space="preserve" xmlns:serif="http://www.serif.com/" style="fill-rule:evenodd;clip-rule:evenodd;stroke-linejoin:round;stroke-miterlimit:2;">
    <path d="M872,10L892,10L892,20L902,20L902,30L892,30L892,40L882,40L882,30L872,30L872,10ZM912,10L922,10L922,0L932,0L932,20L912,20L912,10ZM892,10L892,0L912,0L912,10L892,10ZM902,30L912,30L912,50L902,50L902,30ZM872,10L862,10L862,0L872,0L872,10ZM962,10L962,20L942,20L942,10L962,10ZM962,10L962,0L972,0L972,10L962,10ZM982,150L982,160L962,160L962,150L982,150ZM982,150L982,140L992,140L992,150L982,150ZM862,150L862,160L842,160L842,150L862,150ZM862,130L852,130L852,120L862,120L862,130ZM872,150L902,150L902,160L872,160L872,150ZM862,150L862,130L872,130L872,150L862,150ZM822,60L822,40L812,40L812,30L822,30L822,20L842,20L842,30L832,30L832,50L842,50L842,60L822,60ZM842,20L842,10L852,10L852,20L842,20ZM852,20L862,20L862,30L852,30L852,20ZM852,30L852,40L872,40L872,50L862,50L862,60L852,60L852,50L842,50L842,30L852,30ZM812,70L812,60L822,60L822,70L812,70ZM732,130L742,130L742,140L732,140L732,130ZM10,150L10,140L0,140L0,10L10,10L10,0L380,0L380,10L390,10L390,0L542,0L542,10L552,10L552,0L602,0L602,10L622,10L622,20L632,20L632,0L672,0L672,10L652,10L652,20L642,20L642,30L652,30L652,20L662,20L662,40L652,40L652,50L662,50L662,40L672,40L672,10L692,10L692,0L722,0L722,40L702,40L702,30L712,30L712,10L702,10L702,30L682,30L682,50L672,50L672,80L662,80L662,70L652,70L652,80L662,80L662,90L652,90L652,100L642,100L642,80L632,80L632,110L652,110L652,160L632,160L632,140L622,140L622,160L612,160L612,130L622,130L622,120L612,120L612,130L602,130L602,160L572,160L572,150L562,150L562,160L280,160L280,150L270,150L270,160L20,160L20,150L10,150ZM722,40L732,40L732,50L722,50L722,40ZM722,50L722,70L712,70L712,60L702,60L702,50L722,50ZM722,70L732,70L732,80L722,80L722,70ZM722,80L722,90L712,90L712,80L722,80ZM712,90L712,100L732,100L732,130L722,130L722,120L712,120L712,110L702,110L702,100L692,100L692,70L712,70L712,80L702,80L702,90L712,90ZM722,130L722,150L712,150L712,160L692,160L692,150L672,150L672,140L702,140L702,130L722,130ZM672,140L662,140L662,110L652,110L652,100L672,100L672,110L682,110L682,120L672,120L672,140ZM682,50L692,50L692,60L682,60L682,50ZM672,80L682,80L682,100L672,100L672,80ZM682,100L692,100L692,110L682,110L682,100ZM702,110L702,130L682,130L682,120L692,120L692,110L702,110ZM10,150L10,160L0,160L0,150L10,150ZM822,150L832,150L832,160L822,160L822,150ZM782,150L792,150L792,160L782,160L782,150ZM732,70L732,60L752,60L752,50L762,50L762,40L752,40L752,50L742,50L742,30L752,30L752,20L742,20L742,30L732,30L732,10L742,10L742,0L762,0L762,30L782,30L782,40L772,40L772,50L782,50L782,60L772,60L772,70L782,70L782,80L762,80L762,110L792,110L792,90L782,90L782,80L792,80L792,70L812,70L812,80L802,80L802,100L832,100L832,110L822,110L822,120L812,120L812,110L802,110L802,120L782,120L782,150L772,150L772,120L762,120L762,140L752,140L752,120L742,120L742,110L752,110L752,100L742,100L742,80L752,80L752,70L732,70ZM782,40L802,40L802,60L792,60L792,50L782,50L782,40ZM792,60L792,70L782,70L782,60L792,60ZM822,120L842,120L842,140L832,140L832,130L822,130L822,120ZM822,130L822,150L812,150L812,160L802,160L802,140L812,140L812,130L822,130ZM802,140L792,140L792,130L802,130L802,140ZM802,130L802,120L812,120L812,130L802,130ZM782,90L782,100L772,100L772,90L782,90ZM812,30L802,30L802,20L812,20L812,30ZM592,10L582,10L582,20L592,20L592,10ZM154.024,59.219L136.797,99.16L140.391,100.781L157.657,60.82L154.024,59.219ZM582.03,50L582.03,60L562,60L562,70L592,70L592,60L592.03,60L592.03,50L582.03,50ZM582.03,50L582.03,40L572.03,40L572.03,50L582.03,50ZM562,110L562,100L552,100L552,110L562,110ZM572,110L592,110L592,100L572,100L572,110ZM562,110L562,120L572,120L572,110L562,110ZM622,110L622,90L612,90L612,110L622,110ZM80.185,46.409C61.355,46.409 46.067,61.697 46.067,80.527C46.067,99.358 61.355,114.645 80.185,114.645C99.016,114.645 114.304,99.358 114.304,80.527C114.304,61.697 99.016,46.409 80.185,46.409ZM80.185,50.832C96.575,50.832 109.881,64.138 109.881,80.527C109.881,96.917 96.575,110.223 80.185,110.223C63.796,110.223 50.49,96.917 50.49,80.527C50.49,64.138 63.796,50.832 80.185,50.832ZM81.798,71.8L81.798,67.755C82.888,67.18 83.629,66.041 83.629,64.736C83.629,62.856 82.091,61.32 80.185,61.32C78.28,61.32 76.742,62.856 76.742,64.736C76.742,66.001 77.438,67.11 78.473,67.7L78.473,71.8L74.043,71.8C70.313,71.8 67.284,74.829 67.284,78.559L67.284,88.413C67.284,92.144 70.313,95.172 74.043,95.172L86.327,95.172C90.058,95.172 93.087,92.144 93.087,88.413L93.087,78.559C93.087,74.829 90.058,71.8 86.327,71.8L81.798,71.8ZM89.422,78.559L89.422,88.413C89.422,90.121 88.035,91.508 86.327,91.508L74.043,91.508C72.335,91.508 70.949,90.121 70.949,88.413L70.949,78.559C70.949,76.851 72.335,75.465 74.043,75.465L86.327,75.465C88.035,75.465 89.422,76.851 89.422,78.559ZM84.384,80.401C84.04,80.381 83.689,80.502 83.426,80.765L81.765,82.423C81.276,82.911 81.275,83.705 81.764,84.195C82.252,84.684 83.046,84.685 83.536,84.196L84.34,83.393L85.146,84.2C85.634,84.689 86.428,84.69 86.918,84.201C87.407,83.713 87.408,82.919 86.919,82.429L85.261,80.768C85.019,80.526 84.702,80.403 84.384,80.401ZM75.91,80.401C75.566,80.381 75.215,80.502 74.952,80.765L73.291,82.423C72.802,82.911 72.801,83.705 73.289,84.195C73.778,84.684 74.572,84.685 75.061,84.196L75.866,83.393L76.671,84.2C77.16,84.689 77.954,84.69 78.443,84.201C78.933,83.713 78.933,82.919 78.445,82.429L76.787,80.768C76.545,80.526 76.228,80.403 75.91,80.401ZM80.185,63.974C80.617,63.974 80.975,64.311 80.975,64.736C80.975,65.162 80.617,65.499 80.185,65.499C79.754,65.499 79.395,65.162 79.395,64.736C79.395,64.311 79.754,63.974 80.185,63.974ZM288.145,73.516L288.145,75.723C286.387,73.9 284.402,72.988 282.188,72.988C279.623,72.988 277.487,73.939 275.782,75.84C274.076,77.741 273.223,80.117 273.223,82.969C273.223,85.872 274.076,88.294 275.782,90.234C277.5,92.135 279.675,93.086 282.305,93.086C284.389,93.086 286.335,92.24 288.145,90.547L288.145,92.539L292.559,92.539L292.559,73.516L288.145,73.516ZM277.715,82.969C277.715,81.263 278.217,79.831 279.219,78.672C280.235,77.526 281.498,76.953 283.008,76.953C284.61,76.953 285.912,77.52 286.915,78.652C287.917,79.811 288.418,81.283 288.418,83.066C288.418,84.85 287.917,86.322 286.915,87.48C285.912,88.6 284.597,89.16 282.969,89.16C281.446,89.16 280.183,88.581 279.18,87.422C278.204,86.276 277.715,84.792 277.715,82.969ZM269.317,84.063L269.336,83.027C269.336,79.889 268.529,77.435 266.915,75.664C265.287,73.88 263.073,72.988 260.274,72.988C257.5,72.988 255.274,73.906 253.594,75.742C251.928,77.604 251.094,80.039 251.094,83.047C251.094,86.081 251.954,88.516 253.672,90.352C255.391,92.174 257.67,93.086 260.508,93.086C261.498,93.086 262.416,92.982 263.262,92.773C264.109,92.565 264.896,92.236 265.625,91.787C266.355,91.338 267.038,90.765 267.676,90.068C268.314,89.372 268.92,88.535 269.493,87.559L265.782,85.488C264.883,86.895 264.083,87.858 263.379,88.379C262.663,88.9 261.758,89.16 260.665,89.16C259.258,89.16 258.106,88.704 257.208,87.793C256.309,86.868 255.801,85.625 255.684,84.063L269.317,84.063ZM264.805,80.469L255.977,80.469C256.12,79.922 256.329,79.434 256.602,79.004C256.875,78.574 257.204,78.206 257.588,77.9C257.972,77.594 258.399,77.36 258.868,77.197C259.336,77.035 259.838,76.953 260.372,76.953C262.715,76.953 264.193,78.125 264.805,80.469ZM195.606,76.758C194.421,74.245 192.611,72.988 190.176,72.988C188.523,72.988 187.116,73.529 185.958,74.609C184.825,75.69 184.258,77.057 184.258,78.711C184.258,79.961 184.59,80.983 185.254,81.777C185.775,82.402 186.674,83.027 187.95,83.652C188.405,83.874 188.855,84.089 189.297,84.297C189.74,84.505 190.183,84.72 190.625,84.941C191.771,85.618 192.344,86.348 192.344,87.129C192.344,88.483 191.602,89.16 190.118,89.16C189.375,89.16 188.737,88.913 188.204,88.418C187.93,88.171 187.533,87.591 187.012,86.68L183.262,88.418C184.59,91.53 186.849,93.086 190.04,93.086C191.902,93.086 193.49,92.5 194.805,91.328C196.159,90.091 196.836,88.555 196.836,86.719C196.836,85.286 196.433,84.147 195.625,83.301C194.818,82.454 193.249,81.53 190.918,80.527C189.226,79.811 188.379,79.089 188.379,78.359C188.379,77.943 188.523,77.601 188.809,77.334C189.096,77.067 189.441,76.934 189.844,76.934C190.691,76.934 191.4,77.52 191.973,78.691L195.606,76.758ZM235.879,76.758C234.694,74.245 232.885,72.988 230.45,72.988C228.796,72.988 227.39,73.529 226.231,74.609C225.098,75.69 224.532,77.057 224.532,78.711C224.532,79.961 224.864,80.983 225.528,81.777C226.049,82.402 226.947,83.027 228.223,83.652C228.679,83.874 229.128,84.089 229.571,84.297C230.014,84.505 230.456,84.72 230.899,84.941C232.045,85.618 232.618,86.348 232.618,87.129C232.618,88.483 231.875,89.16 230.391,89.16C229.649,89.16 229.011,88.913 228.477,88.418C228.204,88.171 227.806,87.591 227.286,86.68L223.536,88.418C224.864,91.53 227.123,93.086 230.313,93.086C232.175,93.086 233.764,92.5 235.079,91.328C236.433,90.091 237.11,88.555 237.11,86.719C237.11,85.286 236.706,84.147 235.899,83.301C235.092,82.454 233.523,81.53 231.192,80.527C229.499,79.811 228.653,79.089 228.653,78.359C228.653,77.943 228.796,77.601 229.083,77.334C229.369,77.067 229.714,76.934 230.118,76.934C230.964,76.934 231.674,77.52 232.247,78.691L235.879,76.758ZM572,130L562,130L562,140L572,140L572,130ZM642,60L632,60L632,70L642,70L642,60ZM622,70L612,70L612,80L622,80L622,70ZM552,70L542,70L542,80L552,80L552,70ZM199.883,82.891C199.883,85.807 200.847,88.229 202.774,90.156C204.701,92.109 207.09,93.086 209.942,93.086C212.819,93.086 215.248,92.129 217.227,90.215C219.193,88.288 220.176,85.898 220.176,83.047C220.176,80.221 219.2,77.839 217.247,75.898C215.267,73.958 212.859,72.988 210.02,72.988C207.194,72.988 204.799,73.952 202.833,75.879C200.866,77.806 199.883,80.143 199.883,82.891ZM204.375,82.969C204.375,81.198 204.896,79.753 205.938,78.633C206.98,77.513 208.34,76.953 210.02,76.953C211.726,76.953 213.099,77.513 214.141,78.633C215.17,79.74 215.684,81.217 215.684,83.066C215.684,84.915 215.17,86.393 214.141,87.5C213.112,88.607 211.739,89.16 210.02,89.16C208.314,89.16 206.941,88.6 205.899,87.48C204.883,86.374 204.375,84.87 204.375,82.969ZM542,120L532,120L532,130L542,130L542,120ZM602,80L592,80L592,90L602,90L602,80ZM245.586,77.617L249.004,77.617L249.004,73.516L245.586,73.516L245.586,66.543L241.192,66.543L241.192,73.516L239.317,73.516L239.317,77.617L241.192,77.617L241.192,92.539L245.586,92.539L245.586,77.617ZM542,100L532,100L532,110L542,110L542,100ZM174.59,73.516L174.59,75.723C172.833,73.9 170.847,72.988 168.633,72.988C166.068,72.988 163.933,73.939 162.227,75.84C160.521,77.741 159.668,80.117 159.668,82.969C159.668,85.872 160.521,88.294 162.227,90.234C163.946,92.135 166.12,93.086 168.75,93.086C170.834,93.086 172.78,92.24 174.59,90.547L174.59,92.539L179.004,92.539L179.004,73.516L174.59,73.516ZM164.161,82.969C164.161,81.263 164.662,79.831 165.665,78.672C166.68,77.526 167.943,76.953 169.454,76.953C171.055,76.953 172.357,77.52 173.36,78.652C174.362,79.811 174.864,81.283 174.864,83.066C174.864,84.85 174.362,86.322 173.36,87.48C172.357,88.6 171.042,89.16 169.415,89.16C167.891,89.16 166.628,88.581 165.625,87.422C164.649,86.276 164.161,84.792 164.161,82.969ZM522,70L512,70L512,80L522,80L522,70ZM552,20L542,20L542,30L552,30L552,20ZM298.106,73.516L298.106,92.539L302.5,92.539L302.5,82.715C302.5,80.723 302.784,79.264 303.35,78.34C303.917,77.415 304.818,76.953 306.055,76.953C308.008,76.953 308.985,78.646 308.985,82.031L308.985,92.539L313.399,92.539L313.399,82.715C313.399,80.697 313.676,79.232 314.229,78.32C314.782,77.409 315.665,76.953 316.875,76.953C317.917,76.953 318.666,77.337 319.122,78.105C319.564,78.861 319.786,80.15 319.786,81.973L319.786,92.539L324.2,92.539L324.2,80.781C324.2,75.586 322.058,72.988 317.774,72.988C315.417,72.988 313.549,73.926 312.168,75.801C310.918,73.926 309.219,72.988 307.071,72.988C306.107,72.988 305.306,73.151 304.668,73.477C304.069,73.789 303.347,74.388 302.5,75.273L302.5,73.516L298.106,73.516ZM952,60L952,70L942,70L942,60L952,60ZM952,60L952,50L962,50L962,60L952,60ZM972,70L972,60L982,60L982,70L972,70ZM962,100L962,110L952,110L952,100L962,100ZM972,80L962,80L962,70L972,70L972,80ZM972,90L972,80L982,80L982,90L972,90ZM972,100L982,100L982,110L972,110L972,100ZM962,100L962,90L972,90L972,100L962,100ZM872,90L872,100L862,100L862,90L872,90ZM832,80L832,70L872,70L872,80L832,80ZM872,70L872,60L882,60L882,70L872,70ZM882,60L882,50L892,50L892,60L882,60ZM892,60L912,60L912,70L892,70L892,60ZM892,70L892,80L912,80L912,90L942,90L942,100L902,100L902,90L872,90L872,80L882,80L882,70L892,70ZM832,80L832,90L822,90L822,80L832,80ZM902,130L892,130L892,120L902,120L902,130ZM902,120L902,110L912,110L912,120L902,120ZM912,120L922,120L922,130L912,130L912,120ZM912,130L912,140L902,140L902,130L912,130ZM992,40L992,50L972,50L972,40L992,40ZM992,40L992,30L1002,30L1002,40L992,40ZM802,0L822,0L822,10L802,10L802,0ZM992,0L1002,0L1002,10L992,10L992,0ZM932,160L912,160L912,150L932,150L932,160ZM742,160L732,160L732,150L742,150L742,160ZM1012,80L1002,80L1002,70L1012,70L1012,80ZM752,160L752,150L762,150L762,160L752,160ZM892,110L882,110L882,100L892,100L892,110ZM942,140L932,140L932,130L942,130L942,140ZM922,40L942,40L942,50L932,50L932,60L922,60L922,40ZM992,120L992,130L982,130L982,120L992,120ZM842,110L842,100L852,100L852,110L842,110ZM922,70L932,70L932,80L922,80L922,70ZM972,130L952,130L952,120L972,120L972,130Z"/>
</svg>
